<svg width="55" height="75" viewBox="0 0 55 75" fill="none" xmlns="http://www.w3.org/2000/svg">
<mask id="path-1-outside-1_485_175" maskUnits="userSpaceOnUse" x="0" y="0" width="55" height="75" fill="black">
<rect fill="white" width="55" height="75"/>
<path d="M45.5419 2H45.8161L46.0355 2.88199L46.3097 4.48059L46.4742 6.07919V8.17391L46.3097 9.66227L46.0355 10.9852L45.6516 12.198L45.2129 13.2453L44.5548 14.403L43.9516 15.2849L43.2387 16.1118L42.8 16.6079L41.9774 16.7182L41.0452 16.9387L39.9484 17.2694L39.2903 17.545L39.1806 17.7655L39.0161 17.9309L38.4677 18.868L38.1387 19.4744L37.9194 19.8602L38.6323 19.4193L39.5097 18.9783L40.3871 18.5924L41.429 18.2616L42.8 17.986L44.0065 17.8758H44.9387L46.6387 18.0411L48.229 18.3719L49.6548 18.8129L51.1903 19.4193L52.0677 19.8602L53 20.3012V20.7422L52.7806 20.9627L52.2871 21.7345L51.5194 22.7818L50.9161 23.4984L50.5323 23.9394L49.8194 24.7112L49.3806 25.097L48.8323 25.5932L47.9 26.3098L47.1323 26.8059L46.8581 27.0264L46.3645 26.861L44.3355 26.1444L43.0742 25.8137L41.5935 25.538L40.5516 25.4278H38.4129L37.0419 25.5932L35.671 25.9239L34.4097 26.3649L34.0806 26.4752L33.971 26.6957L33.5871 27.4123L32.8194 28.7352V28.7904L33.5323 28.3494L34.4645 27.8533L35.5613 27.4123L36.6581 27.0815L37.9194 26.861L38.4677 26.8059H40.5516L41.8677 26.9713L43.129 27.2469L44.4452 27.6328L46.1452 28.2943L47.9548 29.1762L48.0645 29.2865L48.0097 29.5621L47.4613 30.389L46.8032 31.3261L46.2 32.0978L45.7065 32.6491L45.3226 33.0901L44.3355 34.0823H44.2258V34.1925L43.4581 34.7989L42.471 35.5155L41.2097 36.2321L40.8258 36.3975L40.4419 36.3424L38.6323 35.736L37.371 35.4053L36.1645 35.1848L35.2323 35.0745L34.2452 35.0194H33.5871L32.2161 35.1297L30.9548 35.3502L29.9129 35.6258L28.5968 36.1219L28.2677 36.618L27.9387 37.2244L27.2806 38.382H27.3355L28.2677 37.8307L29.529 37.2244L30.5161 36.8936L31.6677 36.618L32.8194 36.4526L33.5871 36.3975H34.2452L35.6161 36.5078L36.9323 36.7283L38.4129 37.1141L39.8387 37.6102L41.2097 38.2166L42.4161 38.823L42.471 38.8781L42.4161 39.264L41.8129 40.2011L41.1 41.1933L40.3871 42.0753L39.5645 42.9573L38.8516 43.6739L38.4129 44.0598L37.6452 44.6661L36.8226 45.2174L35.671 45.8789L35.1774 46.0994L33.6968 45.5481L32.1065 45.1071L31.0097 44.8866L29.7484 44.7213L28.7613 44.6661H27.9387L26.5677 44.7764L25.1419 45.052L23.7161 45.493L23.0581 45.7686L22.5645 46.5955L21.7968 47.9185L21.7419 48.0839L22.2903 47.698L23.3323 47.1467L24.5935 46.6506L25.5258 46.375L26.7323 46.1545L28.1581 46.0443L29.6387 46.0994L30.9 46.2648L32.3258 46.5955L33.4226 46.9262L34.8484 47.4775L36.3839 48.1941L36.9871 48.5248L36.9323 48.8005L36.329 49.7927L35.6161 50.7298L35.1226 51.3913L34.629 51.9425L34.5742 52.0528H34.4645L34.3548 52.2733L33.3677 53.2655H33.2581V53.3758L32.6548 53.8719L31.6129 54.6436L30.5161 55.3051L29.7484 55.691L29.2 55.5807L27.6645 55.0295L26.8968 54.809L25.2516 54.4783L24.3194 54.368L23.3323 54.3129H22.4548L21.4129 54.368L20.0419 54.5885L18.6161 54.9744L17.5194 55.4154L17.0806 56.132L16.5323 57.1242L16.2032 57.6755L16.4226 57.5652L17.3548 57.014L18.5613 56.4627L19.7677 56.0769L21.1387 55.8012L22.4548 55.691H23.4419L24.6484 55.8012L25.6903 55.9666L27.0613 56.2974L28.8161 56.9037L30.2968 57.5652L31.3387 58.1165L31.5032 58.2267L31.3935 58.5023L31.0097 59.0536L30.571 59.7151L29.9677 60.5419L29.2 61.479L28.9806 61.7547H28.871L28.7613 61.9752L27.8839 62.8571L27.4452 63.243L26.6226 63.9045L25.9645 64.3455L24.9774 64.9519L23.9355 65.448L22.4548 65.9441L21.2484 66.2197L20.3161 66.33L19.1097 66.3851L17.5194 66.2748L15.7645 65.9441L14.3935 65.5031L13.2419 65.0621L12.2548 64.6211L12.0355 64.8967L11.3226 66.1646L10.5548 67.4876L9.89677 68.6452L9.12903 69.9682L8.25161 71.5116L7.70323 72.3936L7.26452 72.7795L6.77097 73H6.1129L5.23548 72.559L4.74194 72.2283L4.46774 71.9526L4.24839 71.6219L4.13871 71.236V70.6848L4.35806 70.0784L5.23548 68.5349L6.00323 67.212L6.66129 66.0543L7.42903 64.7314L8.14194 63.4635L8.63548 62.6366L8.52581 62.4161L7.75806 61.8649L6.88065 61.1483L6.44194 60.7624L5.94839 60.3214V60.2112L5.72903 60.1009V59.9907H5.61935L5.23548 59.5497L4.63226 58.8331L3.97419 57.896L3.53548 57.1793L3.09677 56.3525L2.65806 55.25L2.32903 54.1475L2.05484 52.604L2 51.7772V50.6747L2.10968 49.462L2.32903 48.139L2.7129 46.7057L3.09677 45.6033L3.64516 44.2252L4.4129 42.6817L4.57742 42.5714L5.61935 43.2329L6.55161 43.8944L7.48387 44.6661L7.92258 45.052L8.74516 45.8238L9.56774 46.7057L10.171 47.4775L10.6645 48.1941L11.2129 49.1312L11.6516 50.0132L12.1452 51.3913L12.4194 52.4938L12.5839 53.5963L12.6935 55.5256L13.4613 54.2026L13.7903 53.6514L13.8452 53.486V52.7143L13.571 51.4464L13.2968 50.5093L12.8581 49.4068L12.4194 48.4697L11.871 47.5326L11.5968 47.1467V47.0365L11.4323 46.9814L11.3226 46.7609L11.1032 46.5404L11.0484 46.4301L10.8839 46.2096L10.7742 46.0994L10.6645 45.8789L10.0613 45.2174L9.67742 44.7764L9.40323 44.5559L8.58065 43.729L8.25161 43.5085L8.14194 43.4534L7.97742 43.288L7.75806 43.1227V43.0124H7.64839L7.53871 42.3509V40.8075L7.70323 39.3742L7.97742 37.9961L8.47097 36.3975L8.90968 35.2399L9.5129 33.9169L9.95161 32.9798L10.1161 32.9247L11.1581 33.5862L12.2 34.3579L12.7484 34.7989L13.4613 35.4053L13.8452 35.7911L14.0097 35.9014V36.0116L14.229 36.1219L14.6129 36.5629L14.9968 36.9488L15.4903 37.5551L16.2032 38.5474L16.6968 39.3742L17.3548 40.7523L17.6839 41.7446L17.9581 42.847L18.1226 44.0598L18.1774 44.9418V45.9891L18.7258 44.9969L19.0548 44.5008L19.3839 43.8393V43.1778L19.2194 42.2407L18.9452 41.2484L18.5613 40.146L17.9032 38.7679L17.4645 37.9961L17.0806 37.4449V37.3346L16.9161 37.2795L16.8065 37.059L16.7516 36.8936L16.5871 36.8385L16.3677 36.5078L16.2581 36.3975L16.1484 36.177L15.4903 35.4604L15.2161 35.1297L14.7774 34.7438L14.2839 34.2477L14.0097 34.0823L13.8452 33.972V33.8618L13.6258 33.8067L13.5161 33.6413L13.3516 33.5862V33.4759H13.2419L13.0774 33.0901V31.1056L13.2419 29.6724L13.5161 28.3494L14.0097 26.7508L14.4484 25.5932L14.9419 24.4907L15.4355 23.4433L15.5452 23.3331L15.7645 23.3882L16.4226 23.7741L16.971 24.1599L17.7387 24.7112L18.671 25.4829L19.1097 25.8688L19.3839 26.1444L19.5484 26.2547L19.6032 26.3649L19.8226 26.42V26.5854L19.9323 26.6405L19.9871 26.5303L20.0968 26.6957L19.9871 26.7508L20.2613 26.8059V27.0264L20.7548 27.5776L21.4677 28.5148L22.071 29.4519L22.6194 30.4992L23.0581 31.6017L23.3871 32.7593L23.5516 33.5311L23.6613 34.413L23.7161 35.295V36.3975L24.3742 35.1848L24.8677 34.3579L24.9774 33.9169L24.7581 32.5939L24.3742 31.271L23.9355 30.1134L23.3871 29.0109L22.6742 27.8533L22.2355 27.302V27.1918L22.071 27.1366V27.0264H21.9613L21.8516 26.8059L21.7419 26.6957L21.6323 26.4752L20.8645 25.6483L19.9871 24.7663L19.8774 24.7112V24.6009L19.6581 24.4907L19.4387 24.3253H19.329L19.2194 24.1048H19.1097L18.671 23.6638L18.6161 23.2228V21.3486L18.7806 20.0256L19.0548 18.7026L19.4935 17.2694L19.9323 16.0567L20.5903 14.5683L21.0839 13.6863L21.3032 13.7415L22.2903 14.3478L22.9484 14.8439L23.8806 15.5606L24.7032 16.2772L24.8677 16.4425H25.0323V16.6079L25.3613 16.7182L25.2516 16.8284L25.5806 16.9387L25.471 17.0489L25.7452 17.104V17.3245L26.2935 17.9309L27.1161 19.0334L27.5548 19.75L27.8839 20.3012L28.4323 21.514L28.871 22.8921L29.0903 23.9394L29.2 24.7663L29.3097 26.4752L29.3645 26.5303L30.1871 25.0419L30.4613 24.6561L30.5161 24.2702L30.2968 23.0023L29.9129 21.6793L29.5839 20.7422L28.9258 19.3641L28.2129 18.2065L27.7194 17.545V17.4348H27.6097L27.3903 17.104L27.2806 17.0489L27.1161 16.7733L26.2935 15.8913L25.6903 15.2849L25.2516 14.8991L25.0323 14.6786L24.8129 14.6234L24.7032 14.4581L24.4839 14.3478V14.2376L24.2097 14.1273L23.8258 13.7415L23.771 13.6312L23.8258 12.2531L24.0452 10.7648L24.3194 9.60714L24.7032 8.33929L25.2516 6.96118L25.8548 5.6382L26.2387 4.92158L26.3484 4.86646L27.2258 5.4177L28.1581 6.07919L28.9258 6.68556L29.6387 7.29193L30.2968 7.89829L30.9548 8.55978L31.4484 9.16615L32.0516 9.93789L32.4355 10.4891L33.0935 11.6467L33.5871 12.7492L33.9161 13.6863L34.2452 15.2298L34.3548 16.222L34.4097 17.7104L34.7387 17.1592L35.3419 16.1118L35.6161 15.5606L35.5613 14.7337L35.2323 13.3005L34.7935 11.9775L34.8484 11.5916L35.2323 10.434L35.671 9.44177L36.329 8.28416L36.9323 7.4573L37.5903 6.68556L38.5774 5.69332L39.3452 5.08696L40.1129 4.53571L40.8258 4.09472L41.7032 3.5986L42.5806 3.15761L43.8968 2.60637L44.829 2.27562L45.4871 2.05512L45.5419 2ZM29.2 26.6405L29.2548 26.861L29.3097 26.6405H29.2Z"/>
</mask>
<path d="M45.5419 2H45.8161L46.0355 2.88199L46.3097 4.48059L46.4742 6.07919V8.17391L46.3097 9.66227L46.0355 10.9852L45.6516 12.198L45.2129 13.2453L44.5548 14.403L43.9516 15.2849L43.2387 16.1118L42.8 16.6079L41.9774 16.7182L41.0452 16.9387L39.9484 17.2694L39.2903 17.545L39.1806 17.7655L39.0161 17.9309L38.4677 18.868L38.1387 19.4744L37.9194 19.8602L38.6323 19.4193L39.5097 18.9783L40.3871 18.5924L41.429 18.2616L42.8 17.986L44.0065 17.8758H44.9387L46.6387 18.0411L48.229 18.3719L49.6548 18.8129L51.1903 19.4193L52.0677 19.8602L53 20.3012V20.7422L52.7806 20.9627L52.2871 21.7345L51.5194 22.7818L50.9161 23.4984L50.5323 23.9394L49.8194 24.7112L49.3806 25.097L48.8323 25.5932L47.9 26.3098L47.1323 26.8059L46.8581 27.0264L46.3645 26.861L44.3355 26.1444L43.0742 25.8137L41.5935 25.538L40.5516 25.4278H38.4129L37.0419 25.5932L35.671 25.9239L34.4097 26.3649L34.0806 26.4752L33.971 26.6957L33.5871 27.4123L32.8194 28.7352V28.7904L33.5323 28.3494L34.4645 27.8533L35.5613 27.4123L36.6581 27.0815L37.9194 26.861L38.4677 26.8059H40.5516L41.8677 26.9713L43.129 27.2469L44.4452 27.6328L46.1452 28.2943L47.9548 29.1762L48.0645 29.2865L48.0097 29.5621L47.4613 30.389L46.8032 31.3261L46.2 32.0978L45.7065 32.6491L45.3226 33.0901L44.3355 34.0823H44.2258V34.1925L43.4581 34.7989L42.471 35.5155L41.2097 36.2321L40.8258 36.3975L40.4419 36.3424L38.6323 35.736L37.371 35.4053L36.1645 35.1848L35.2323 35.0745L34.2452 35.0194H33.5871L32.2161 35.1297L30.9548 35.3502L29.9129 35.6258L28.5968 36.1219L28.2677 36.618L27.9387 37.2244L27.2806 38.382H27.3355L28.2677 37.8307L29.529 37.2244L30.5161 36.8936L31.6677 36.618L32.8194 36.4526L33.5871 36.3975H34.2452L35.6161 36.5078L36.9323 36.7283L38.4129 37.1141L39.8387 37.6102L41.2097 38.2166L42.4161 38.823L42.471 38.8781L42.4161 39.264L41.8129 40.2011L41.1 41.1933L40.3871 42.0753L39.5645 42.9573L38.8516 43.6739L38.4129 44.0598L37.6452 44.6661L36.8226 45.2174L35.671 45.8789L35.1774 46.0994L33.6968 45.5481L32.1065 45.1071L31.0097 44.8866L29.7484 44.7213L28.7613 44.6661H27.9387L26.5677 44.7764L25.1419 45.052L23.7161 45.493L23.0581 45.7686L22.5645 46.5955L21.7968 47.9185L21.7419 48.0839L22.2903 47.698L23.3323 47.1467L24.5935 46.6506L25.5258 46.375L26.7323 46.1545L28.1581 46.0443L29.6387 46.0994L30.9 46.2648L32.3258 46.5955L33.4226 46.9262L34.8484 47.4775L36.3839 48.1941L36.9871 48.5248L36.9323 48.8005L36.329 49.7927L35.6161 50.7298L35.1226 51.3913L34.629 51.9425L34.5742 52.0528H34.4645L34.3548 52.2733L33.3677 53.2655H33.2581V53.3758L32.6548 53.8719L31.6129 54.6436L30.5161 55.3051L29.7484 55.691L29.2 55.5807L27.6645 55.0295L26.8968 54.809L25.2516 54.4783L24.3194 54.368L23.3323 54.3129H22.4548L21.4129 54.368L20.0419 54.5885L18.6161 54.9744L17.5194 55.4154L17.0806 56.132L16.5323 57.1242L16.2032 57.6755L16.4226 57.5652L17.3548 57.014L18.5613 56.4627L19.7677 56.0769L21.1387 55.8012L22.4548 55.691H23.4419L24.6484 55.8012L25.6903 55.9666L27.0613 56.2974L28.8161 56.9037L30.2968 57.5652L31.3387 58.1165L31.5032 58.2267L31.3935 58.5023L31.0097 59.0536L30.571 59.7151L29.9677 60.5419L29.2 61.479L28.9806 61.7547H28.871L28.7613 61.9752L27.8839 62.8571L27.4452 63.243L26.6226 63.9045L25.9645 64.3455L24.9774 64.9519L23.9355 65.448L22.4548 65.9441L21.2484 66.2197L20.3161 66.33L19.1097 66.3851L17.5194 66.2748L15.7645 65.9441L14.3935 65.5031L13.2419 65.0621L12.2548 64.6211L12.0355 64.8967L11.3226 66.1646L10.5548 67.4876L9.89677 68.6452L9.12903 69.9682L8.25161 71.5116L7.70323 72.3936L7.26452 72.7795L6.77097 73H6.1129L5.23548 72.559L4.74194 72.2283L4.46774 71.9526L4.24839 71.6219L4.13871 71.236V70.6848L4.35806 70.0784L5.23548 68.5349L6.00323 67.212L6.66129 66.0543L7.42903 64.7314L8.14194 63.4635L8.63548 62.6366L8.52581 62.4161L7.75806 61.8649L6.88065 61.1483L6.44194 60.7624L5.94839 60.3214V60.2112L5.72903 60.1009V59.9907H5.61935L5.23548 59.5497L4.63226 58.8331L3.97419 57.896L3.53548 57.1793L3.09677 56.3525L2.65806 55.25L2.32903 54.1475L2.05484 52.604L2 51.7772V50.6747L2.10968 49.462L2.32903 48.139L2.7129 46.7057L3.09677 45.6033L3.64516 44.2252L4.4129 42.6817L4.57742 42.5714L5.61935 43.2329L6.55161 43.8944L7.48387 44.6661L7.92258 45.052L8.74516 45.8238L9.56774 46.7057L10.171 47.4775L10.6645 48.1941L11.2129 49.1312L11.6516 50.0132L12.1452 51.3913L12.4194 52.4938L12.5839 53.5963L12.6935 55.5256L13.4613 54.2026L13.7903 53.6514L13.8452 53.486V52.7143L13.571 51.4464L13.2968 50.5093L12.8581 49.4068L12.4194 48.4697L11.871 47.5326L11.5968 47.1467V47.0365L11.4323 46.9814L11.3226 46.7609L11.1032 46.5404L11.0484 46.4301L10.8839 46.2096L10.7742 46.0994L10.6645 45.8789L10.0613 45.2174L9.67742 44.7764L9.40323 44.5559L8.58065 43.729L8.25161 43.5085L8.14194 43.4534L7.97742 43.288L7.75806 43.1227V43.0124H7.64839L7.53871 42.3509V40.8075L7.70323 39.3742L7.97742 37.9961L8.47097 36.3975L8.90968 35.2399L9.5129 33.9169L9.95161 32.9798L10.1161 32.9247L11.1581 33.5862L12.2 34.3579L12.7484 34.7989L13.4613 35.4053L13.8452 35.7911L14.0097 35.9014V36.0116L14.229 36.1219L14.6129 36.5629L14.9968 36.9488L15.4903 37.5551L16.2032 38.5474L16.6968 39.3742L17.3548 40.7523L17.6839 41.7446L17.9581 42.847L18.1226 44.0598L18.1774 44.9418V45.9891L18.7258 44.9969L19.0548 44.5008L19.3839 43.8393V43.1778L19.2194 42.2407L18.9452 41.2484L18.5613 40.146L17.9032 38.7679L17.4645 37.9961L17.0806 37.4449V37.3346L16.9161 37.2795L16.8065 37.059L16.7516 36.8936L16.5871 36.8385L16.3677 36.5078L16.2581 36.3975L16.1484 36.177L15.4903 35.4604L15.2161 35.1297L14.7774 34.7438L14.2839 34.2477L14.0097 34.0823L13.8452 33.972V33.8618L13.6258 33.8067L13.5161 33.6413L13.3516 33.5862V33.4759H13.2419L13.0774 33.0901V31.1056L13.2419 29.6724L13.5161 28.3494L14.0097 26.7508L14.4484 25.5932L14.9419 24.4907L15.4355 23.4433L15.5452 23.3331L15.7645 23.3882L16.4226 23.7741L16.971 24.1599L17.7387 24.7112L18.671 25.4829L19.1097 25.8688L19.3839 26.1444L19.5484 26.2547L19.6032 26.3649L19.8226 26.42V26.5854L19.9323 26.6405L19.9871 26.5303L20.0968 26.6957L19.9871 26.7508L20.2613 26.8059V27.0264L20.7548 27.5776L21.4677 28.5148L22.071 29.4519L22.6194 30.4992L23.0581 31.6017L23.3871 32.7593L23.5516 33.5311L23.6613 34.413L23.7161 35.295V36.3975L24.3742 35.1848L24.8677 34.3579L24.9774 33.9169L24.7581 32.5939L24.3742 31.271L23.9355 30.1134L23.3871 29.0109L22.6742 27.8533L22.2355 27.302V27.1918L22.071 27.1366V27.0264H21.9613L21.8516 26.8059L21.7419 26.6957L21.6323 26.4752L20.8645 25.6483L19.9871 24.7663L19.8774 24.7112V24.6009L19.6581 24.4907L19.4387 24.3253H19.329L19.2194 24.1048H19.1097L18.671 23.6638L18.6161 23.2228V21.3486L18.7806 20.0256L19.0548 18.7026L19.4935 17.2694L19.9323 16.0567L20.5903 14.5683L21.0839 13.6863L21.3032 13.7415L22.2903 14.3478L22.9484 14.8439L23.8806 15.5606L24.7032 16.2772L24.8677 16.4425H25.0323V16.6079L25.3613 16.7182L25.2516 16.8284L25.5806 16.9387L25.471 17.0489L25.7452 17.104V17.3245L26.2935 17.9309L27.1161 19.0334L27.5548 19.75L27.8839 20.3012L28.4323 21.514L28.871 22.8921L29.0903 23.9394L29.2 24.7663L29.3097 26.4752L29.3645 26.5303L30.1871 25.0419L30.4613 24.6561L30.5161 24.2702L30.2968 23.0023L29.9129 21.6793L29.5839 20.7422L28.9258 19.3641L28.2129 18.2065L27.7194 17.545V17.4348H27.6097L27.3903 17.104L27.2806 17.0489L27.1161 16.7733L26.2935 15.8913L25.6903 15.2849L25.2516 14.8991L25.0323 14.6786L24.8129 14.6234L24.7032 14.4581L24.4839 14.3478V14.2376L24.2097 14.1273L23.8258 13.7415L23.771 13.6312L23.8258 12.2531L24.0452 10.7648L24.3194 9.60714L24.7032 8.33929L25.2516 6.96118L25.8548 5.6382L26.2387 4.92158L26.3484 4.86646L27.2258 5.4177L28.1581 6.07919L28.9258 6.68556L29.6387 7.29193L30.2968 7.89829L30.9548 8.55978L31.4484 9.16615L32.0516 9.93789L32.4355 10.4891L33.0935 11.6467L33.5871 12.7492L33.9161 13.6863L34.2452 15.2298L34.3548 16.222L34.4097 17.7104L34.7387 17.1592L35.3419 16.1118L35.6161 15.5606L35.5613 14.7337L35.2323 13.3005L34.7935 11.9775L34.8484 11.5916L35.2323 10.434L35.671 9.44177L36.329 8.28416L36.9323 7.4573L37.5903 6.68556L38.5774 5.69332L39.3452 5.08696L40.1129 4.53571L40.8258 4.09472L41.7032 3.5986L42.5806 3.15761L43.8968 2.60637L44.829 2.27562L45.4871 2.05512L45.5419 2ZM29.2 26.6405L29.2548 26.861L29.3097 26.6405H29.2Z" fill="#FEDB00"/>
<path d="M45.5419 2H45.8161L46.0355 2.88199L46.3097 4.48059L46.4742 6.07919V8.17391L46.3097 9.66227L46.0355 10.9852L45.6516 12.198L45.2129 13.2453L44.5548 14.403L43.9516 15.2849L43.2387 16.1118L42.8 16.6079L41.9774 16.7182L41.0452 16.9387L39.9484 17.2694L39.2903 17.545L39.1806 17.7655L39.0161 17.9309L38.4677 18.868L38.1387 19.4744L37.9194 19.8602L38.6323 19.4193L39.5097 18.9783L40.3871 18.5924L41.429 18.2616L42.8 17.986L44.0065 17.8758H44.9387L46.6387 18.0411L48.229 18.3719L49.6548 18.8129L51.1903 19.4193L52.0677 19.8602L53 20.3012V20.7422L52.7806 20.9627L52.2871 21.7345L51.5194 22.7818L50.9161 23.4984L50.5323 23.9394L49.8194 24.7112L49.3806 25.097L48.8323 25.5932L47.9 26.3098L47.1323 26.8059L46.8581 27.0264L46.3645 26.861L44.3355 26.1444L43.0742 25.8137L41.5935 25.538L40.5516 25.4278H38.4129L37.0419 25.5932L35.671 25.9239L34.4097 26.3649L34.0806 26.4752L33.971 26.6957L33.5871 27.4123L32.8194 28.7352V28.7904L33.5323 28.3494L34.4645 27.8533L35.5613 27.4123L36.6581 27.0815L37.9194 26.861L38.4677 26.8059H40.5516L41.8677 26.9713L43.129 27.2469L44.4452 27.6328L46.1452 28.2943L47.9548 29.1762L48.0645 29.2865L48.0097 29.5621L47.4613 30.389L46.8032 31.3261L46.2 32.0978L45.7065 32.6491L45.3226 33.0901L44.3355 34.0823H44.2258V34.1925L43.4581 34.7989L42.471 35.5155L41.2097 36.2321L40.8258 36.3975L40.4419 36.3424L38.6323 35.736L37.371 35.4053L36.1645 35.1848L35.2323 35.0745L34.2452 35.0194H33.5871L32.2161 35.1297L30.9548 35.3502L29.9129 35.6258L28.5968 36.1219L28.2677 36.618L27.9387 37.2244L27.2806 38.382H27.3355L28.2677 37.8307L29.529 37.2244L30.5161 36.8936L31.6677 36.618L32.8194 36.4526L33.5871 36.3975H34.2452L35.6161 36.5078L36.9323 36.7283L38.4129 37.1141L39.8387 37.6102L41.2097 38.2166L42.4161 38.823L42.471 38.8781L42.4161 39.264L41.8129 40.2011L41.1 41.1933L40.3871 42.0753L39.5645 42.9573L38.8516 43.6739L38.4129 44.0598L37.6452 44.6661L36.8226 45.2174L35.671 45.8789L35.1774 46.0994L33.6968 45.5481L32.1065 45.1071L31.0097 44.8866L29.7484 44.7213L28.7613 44.6661H27.9387L26.5677 44.7764L25.1419 45.052L23.7161 45.493L23.0581 45.7686L22.5645 46.5955L21.7968 47.9185L21.7419 48.0839L22.2903 47.698L23.3323 47.1467L24.5935 46.6506L25.5258 46.375L26.7323 46.1545L28.1581 46.0443L29.6387 46.0994L30.9 46.2648L32.3258 46.5955L33.4226 46.9262L34.8484 47.4775L36.3839 48.1941L36.9871 48.5248L36.9323 48.8005L36.329 49.7927L35.6161 50.7298L35.1226 51.3913L34.629 51.9425L34.5742 52.0528H34.4645L34.3548 52.2733L33.3677 53.2655H33.2581V53.3758L32.6548 53.8719L31.6129 54.6436L30.5161 55.3051L29.7484 55.691L29.2 55.5807L27.6645 55.0295L26.8968 54.809L25.2516 54.4783L24.3194 54.368L23.3323 54.3129H22.4548L21.4129 54.368L20.0419 54.5885L18.6161 54.9744L17.5194 55.4154L17.0806 56.132L16.5323 57.1242L16.2032 57.6755L16.4226 57.5652L17.3548 57.014L18.5613 56.4627L19.7677 56.0769L21.1387 55.8012L22.4548 55.691H23.4419L24.6484 55.8012L25.6903 55.9666L27.0613 56.2974L28.8161 56.9037L30.2968 57.5652L31.3387 58.1165L31.5032 58.2267L31.3935 58.5023L31.0097 59.0536L30.571 59.7151L29.9677 60.5419L29.2 61.479L28.9806 61.7547H28.871L28.7613 61.9752L27.8839 62.8571L27.4452 63.243L26.6226 63.9045L25.9645 64.3455L24.9774 64.9519L23.9355 65.448L22.4548 65.9441L21.2484 66.2197L20.3161 66.33L19.1097 66.3851L17.5194 66.2748L15.7645 65.9441L14.3935 65.5031L13.2419 65.0621L12.2548 64.6211L12.0355 64.8967L11.3226 66.1646L10.5548 67.4876L9.89677 68.6452L9.12903 69.9682L8.25161 71.5116L7.70323 72.3936L7.26452 72.7795L6.77097 73H6.1129L5.23548 72.559L4.74194 72.2283L4.46774 71.9526L4.24839 71.6219L4.13871 71.236V70.6848L4.35806 70.0784L5.23548 68.5349L6.00323 67.212L6.66129 66.0543L7.42903 64.7314L8.14194 63.4635L8.63548 62.6366L8.52581 62.4161L7.75806 61.8649L6.88065 61.1483L6.44194 60.7624L5.94839 60.3214V60.2112L5.72903 60.1009V59.9907H5.61935L5.23548 59.5497L4.63226 58.8331L3.97419 57.896L3.53548 57.1793L3.09677 56.3525L2.65806 55.25L2.32903 54.1475L2.05484 52.604L2 51.7772V50.6747L2.10968 49.462L2.32903 48.139L2.7129 46.7057L3.09677 45.6033L3.64516 44.2252L4.4129 42.6817L4.57742 42.5714L5.61935 43.2329L6.55161 43.8944L7.48387 44.6661L7.92258 45.052L8.74516 45.8238L9.56774 46.7057L10.171 47.4775L10.6645 48.1941L11.2129 49.1312L11.6516 50.0132L12.1452 51.3913L12.4194 52.4938L12.5839 53.5963L12.6935 55.5256L13.4613 54.2026L13.7903 53.6514L13.8452 53.486V52.7143L13.571 51.4464L13.2968 50.5093L12.8581 49.4068L12.4194 48.4697L11.871 47.5326L11.5968 47.1467V47.0365L11.4323 46.9814L11.3226 46.7609L11.1032 46.5404L11.0484 46.4301L10.8839 46.2096L10.7742 46.0994L10.6645 45.8789L10.0613 45.2174L9.67742 44.7764L9.40323 44.5559L8.58065 43.729L8.25161 43.5085L8.14194 43.4534L7.97742 43.288L7.75806 43.1227V43.0124H7.64839L7.53871 42.3509V40.8075L7.70323 39.3742L7.97742 37.9961L8.47097 36.3975L8.90968 35.2399L9.5129 33.9169L9.95161 32.9798L10.1161 32.9247L11.1581 33.5862L12.2 34.3579L12.7484 34.7989L13.4613 35.4053L13.8452 35.7911L14.0097 35.9014V36.0116L14.229 36.1219L14.6129 36.5629L14.9968 36.9488L15.4903 37.5551L16.2032 38.5474L16.6968 39.3742L17.3548 40.7523L17.6839 41.7446L17.9581 42.847L18.1226 44.0598L18.1774 44.9418V45.9891L18.7258 44.9969L19.0548 44.5008L19.3839 43.8393V43.1778L19.2194 42.2407L18.9452 41.2484L18.5613 40.146L17.9032 38.7679L17.4645 37.9961L17.0806 37.4449V37.3346L16.9161 37.2795L16.8065 37.059L16.7516 36.8936L16.5871 36.8385L16.3677 36.5078L16.2581 36.3975L16.1484 36.177L15.4903 35.4604L15.2161 35.1297L14.7774 34.7438L14.2839 34.2477L14.0097 34.0823L13.8452 33.972V33.8618L13.6258 33.8067L13.5161 33.6413L13.3516 33.5862V33.4759H13.2419L13.0774 33.0901V31.1056L13.2419 29.6724L13.5161 28.3494L14.0097 26.7508L14.4484 25.5932L14.9419 24.4907L15.4355 23.4433L15.5452 23.3331L15.7645 23.3882L16.4226 23.7741L16.971 24.1599L17.7387 24.7112L18.671 25.4829L19.1097 25.8688L19.3839 26.1444L19.5484 26.2547L19.6032 26.3649L19.8226 26.42V26.5854L19.9323 26.6405L19.9871 26.5303L20.0968 26.6957L19.9871 26.7508L20.2613 26.8059V27.0264L20.7548 27.5776L21.4677 28.5148L22.071 29.4519L22.6194 30.4992L23.0581 31.6017L23.3871 32.7593L23.5516 33.5311L23.6613 34.413L23.7161 35.295V36.3975L24.3742 35.1848L24.8677 34.3579L24.9774 33.9169L24.7581 32.5939L24.3742 31.271L23.9355 30.1134L23.3871 29.0109L22.6742 27.8533L22.2355 27.302V27.1918L22.071 27.1366V27.0264H21.9613L21.8516 26.8059L21.7419 26.6957L21.6323 26.4752L20.8645 25.6483L19.9871 24.7663L19.8774 24.7112V24.6009L19.6581 24.4907L19.4387 24.3253H19.329L19.2194 24.1048H19.1097L18.671 23.6638L18.6161 23.2228V21.3486L18.7806 20.0256L19.0548 18.7026L19.4935 17.2694L19.9323 16.0567L20.5903 14.5683L21.0839 13.6863L21.3032 13.7415L22.2903 14.3478L22.9484 14.8439L23.8806 15.5606L24.7032 16.2772L24.8677 16.4425H25.0323V16.6079L25.3613 16.7182L25.2516 16.8284L25.5806 16.9387L25.471 17.0489L25.7452 17.104V17.3245L26.2935 17.9309L27.1161 19.0334L27.5548 19.75L27.8839 20.3012L28.4323 21.514L28.871 22.8921L29.0903 23.9394L29.2 24.7663L29.3097 26.4752L29.3645 26.5303L30.1871 25.0419L30.4613 24.6561L30.5161 24.2702L30.2968 23.0023L29.9129 21.6793L29.5839 20.7422L28.9258 19.3641L28.2129 18.2065L27.7194 17.545V17.4348H27.6097L27.3903 17.104L27.2806 17.0489L27.1161 16.7733L26.2935 15.8913L25.6903 15.2849L25.2516 14.8991L25.0323 14.6786L24.8129 14.6234L24.7032 14.4581L24.4839 14.3478V14.2376L24.2097 14.1273L23.8258 13.7415L23.771 13.6312L23.8258 12.2531L24.0452 10.7648L24.3194 9.60714L24.7032 8.33929L25.2516 6.96118L25.8548 5.6382L26.2387 4.92158L26.3484 4.86646L27.2258 5.4177L28.1581 6.07919L28.9258 6.68556L29.6387 7.29193L30.2968 7.89829L30.9548 8.55978L31.4484 9.16615L32.0516 9.93789L32.4355 10.4891L33.0935 11.6467L33.5871 12.7492L33.9161 13.6863L34.2452 15.2298L34.3548 16.222L34.4097 17.7104L34.7387 17.1592L35.3419 16.1118L35.6161 15.5606L35.5613 14.7337L35.2323 13.3005L34.7935 11.9775L34.8484 11.5916L35.2323 10.434L35.671 9.44177L36.329 8.28416L36.9323 7.4573L37.5903 6.68556L38.5774 5.69332L39.3452 5.08696L40.1129 4.53571L40.8258 4.09472L41.7032 3.5986L42.5806 3.15761L43.8968 2.60637L44.829 2.27562L45.4871 2.05512L45.5419 2ZM29.2 26.6405L29.2548 26.861L29.3097 26.6405H29.2Z" stroke="black" stroke-width="4" mask="url(#path-1-outside-1_485_175)"/>
</svg>
