<svg width="75" height="75" viewBox="0 0 75 75" fill="none" xmlns="http://www.w3.org/2000/svg">
<g clip-path="url(#clip0_325_230)">
<circle cx="37.5" cy="37.5" r="35" fill="#F4B400" stroke="#FEDB00" stroke-width="4"/>
<path d="M47.3143 19.1435L47.1973 18.6758L46.6709 18.8219L46.1737 18.9973L45.4718 19.2896L45.0039 19.5235L44.5359 19.7865L44.1557 20.0204L43.7463 20.3127L43.3369 20.6342L42.8104 21.1603L42.4595 21.5696L42.1378 22.008L41.7868 22.6218L41.5529 23.148L41.3482 23.7618L41.3189 23.9664L41.5529 24.6679L41.7284 25.4279L41.7576 25.8664L41.6114 26.1587L41.2897 26.714L41.1142 27.0063L41.085 26.2171L41.0265 25.691L40.851 24.8725L40.6755 24.3756L40.4123 23.791L40.0614 23.1772L39.8566 22.8849L39.5349 22.4757L39.2717 22.1542L38.9208 21.8034L38.5698 21.4819L38.1896 21.1603L37.7802 20.8388L37.283 20.488L36.8151 20.1957L36.7566 20.225L36.5519 20.605L36.2302 21.3065L35.9377 22.0372L35.733 22.7095L35.5868 23.3234L35.4698 24.1126L35.4406 24.8433L35.6745 25.1064L36.1132 25.4648L36.7859 26.0417L37.2245 26.5094L37.5462 26.9186L37.8095 27.2694L38.1896 27.8832L38.5406 28.614L38.7161 29.1109L38.9208 29.8124L39.0378 30.4847L39.0085 30.6893L38.8623 30.8939L38.4236 31.6831L38.3359 30.7478L38.2774 30.3093L38.1604 29.754L37.9264 29.0232L37.634 28.3801L37.4585 28.0878L37.2245 27.7079L36.7859 27.1233L36.5 26.7725L36.1132 26.3813L35.7 26L35.0019 25.4864L34.6509 25.2233L34.1245 24.9018L34.0075 24.8725L33.7443 25.3402L33.3934 26.1294L33.1594 26.7725L32.9254 27.5325L32.7792 28.234L32.6915 28.9355V29.9293L33.4226 30.7478L33.8905 31.2155L34.8557 32.3847L35.2358 32.9985L35.5283 33.5831L35.7623 34.1969L35.967 34.8984L36.084 35.6L36.0255 35.8338L35.7623 36.2723L35.4113 36.9153V36.3307L35.3821 35.863L35.3236 35.3954L35.2358 34.9861L35.0604 34.3723L34.8264 33.7877L34.5339 33.2323L34.2122 32.7354L33.8321 32.2385L33.5688 31.9462L33.1009 31.4785L32.9547 31.3324L32.7207 31.1278L32.2236 30.7185L31.8141 30.4262L31.5217 30.2216L31.0537 29.9878L30.732 30.6016L30.4688 31.1862L30.2349 31.8001L29.9716 32.6477L29.8254 33.3492L29.7377 34.1092V35.1615L30.6443 36.0384L30.8783 36.243L31.0245 36.4184L31.3754 36.7984L32.0773 37.763L32.3113 38.1722L32.6622 38.903L32.867 39.4876L33.0132 40.0137L33.1009 40.5106V40.8614L32.9254 41.2121L32.75 41.4752L32.4575 42.0013V41.446L32.4283 40.9783L32.3405 40.3352L32.1943 39.7506L32.0188 39.2245L31.6679 38.4937L31.4047 38.0553L31.0245 37.5291L30.7613 37.2076L30.5566 37.003L29.9424 36.3892L29.5622 36.0676L29.2698 35.8338L28.7141 35.4246L28.1584 35.0738L28.0707 35.1031L27.8367 35.6L27.515 36.3015L27.2811 36.9153L27.0178 37.763L26.8716 38.4937L26.7839 39.2537V40.0722L27.3395 40.8029L27.7782 41.2414L27.9245 41.3583L28.1292 41.5921L28.4509 41.9429L29.0943 42.8198L29.3867 43.3167L29.6207 43.8136L29.8547 44.3982L30.0009 44.8951L30.1471 45.5674V45.9766L30.1179 46.0643L29.9424 46.3566L29.533 47.0581L29.4745 46.0351L29.3867 45.4505L29.2405 44.8659L28.9773 44.1351L28.7433 43.6674L28.4509 43.1705L28.1877 42.7905L27.866 42.3813L27.4273 41.9136L26.9886 41.5044L26.7546 41.2998L26.2575 40.8906L25.7603 40.5398L25.2046 40.1891L24.7074 41.066L24.415 41.7967L24.2103 42.3813L24.0056 43.1413L23.8886 43.8428L23.8301 44.4859V45.0705L23.8593 45.5089L24.0056 46.3274L24.181 46.912L24.415 47.4966L24.649 47.935L24.8829 48.315L25.2339 48.8119L25.5556 49.1919L25.7603 49.4258L26.199 49.835L26.4329 50.0396L26.9009 50.4196L27.3103 50.7119L27.1056 51.2673L26.7254 51.9395L26.3159 52.6411L25.965 53.2549L25.5556 53.9564L25.0876 54.7749L24.9707 55.0964V55.3887L25.0291 55.5933L25.1461 55.7687L25.2924 55.9148L25.5556 56.0902L26.0235 56.324H26.3744L26.6377 56.2071L26.8716 56.0025L27.1641 55.5348L27.632 54.7164L28.0414 54.0149L28.3924 53.401L28.8018 52.6995L29.182 52.0272L29.299 51.8811L29.8254 52.1149L30.4396 52.3488L31.1707 52.5826L32.1066 52.758L32.9547 52.8164L33.5981 52.7872L34.0953 52.7288L34.7387 52.5826L35.5283 52.3195L36.084 52.0565L36.6104 51.7349L36.9613 51.5011L37.4 51.1503L37.634 50.9457L38.1019 50.478L38.2189 50.3611L38.3359 50.215L38.7453 49.7181L39.067 49.2796L39.301 48.9288L39.5057 48.6365L39.5642 48.4904L39.4764 48.4319L38.9208 48.1396L38.1312 47.7889L37.1953 47.4673L36.4642 47.292L35.9085 47.2043L35.2651 47.1458H34.7387L34.0368 47.2043L33.3056 47.3504L32.6622 47.555L32.0188 47.8473L31.5217 48.1396L31.4047 48.1981L31.5801 47.9058L31.8726 47.3797L32.1066 46.9997L32.6915 46.7658L33.4519 46.5612L34.183 46.4443L34.7387 46.4151H35.2066L35.733 46.4443L36.2302 46.5028L37.1076 46.6781L37.517 46.7951L38.3359 47.0874L38.6283 47.1458L39.0378 46.9412L39.6227 46.5904L40.1783 46.1812L40.5585 45.8597L41.2312 45.1582L41.4944 44.8659L41.7576 44.5151L42.1378 44.0182L42.4595 43.4921L42.4887 43.3459L42.167 43.1705L41.3482 42.7905L40.5878 42.4982L40.0029 42.3229L39.2425 42.1475L38.5698 42.0598L37.7802 42.0306L37.0198 42.089L36.3764 42.2059L35.8792 42.3521L35.2066 42.6152L34.6509 42.9075L34.3585 43.1121L34.3877 43.0244L34.7972 42.3229L35.0604 41.8844L35.4113 41.7383L36.1717 41.5044L36.9321 41.3583L37.6632 41.2998H38.1019L38.6283 41.329L39.301 41.4167L39.8859 41.5337L40.734 41.7675L41.5236 42.0598L41.7868 41.9429L42.401 41.5921L42.8397 41.2998L43.2491 40.9783L43.4831 40.7737L43.8633 40.3937L44.302 39.926L44.6822 39.4583L45.0623 38.9322L45.3841 38.4353L45.4133 38.2307L45.3841 38.2014L44.7406 37.8799L44.0095 37.5584L43.2491 37.2953L42.4595 37.0907L41.7576 36.9738L41.0265 36.9153H40.6755L40.2661 36.9445L39.6519 37.0322L39.0378 37.1784L38.5113 37.3538L37.8387 37.6753L37.3415 37.9676L37.6632 37.3538L37.8387 37.0322L38.0142 36.7692L38.7161 36.5061L39.2717 36.3599L39.9444 36.243L40.6755 36.1846H41.0265L41.5529 36.2138L42.0501 36.2723L42.6935 36.3892L43.3661 36.5646L44.3312 36.8861L44.5359 36.9153L44.7406 36.8276L45.4133 36.4476L45.9397 36.0676L46.3492 35.7461V35.6877H46.4076L46.9341 35.1615L47.1388 34.9277L47.402 34.6354L47.7237 34.2262L48.0746 33.7292L48.3671 33.2908L48.3963 33.1446L48.3379 33.0862L47.3727 32.6185L46.4661 32.2677L45.7642 32.0631L45.0916 31.917L44.3897 31.8293H43.2784L42.9859 31.8585L42.3133 31.9754L41.7284 32.1508L41.1434 32.3847L40.6463 32.6477L40.2661 32.8816L40.6755 32.1508L40.8802 31.7708L40.9387 31.6539L41.1142 31.5954L41.7868 31.3616L42.518 31.1862L43.2491 31.0985H44.3897L44.9454 31.157L45.735 31.3031L46.4076 31.4785L47.4897 31.8585L47.7529 31.9462L47.8992 31.8293L48.3086 31.5662L48.8058 31.1862L49.0982 30.9232L49.3322 30.7185L49.7124 30.3093L49.9171 30.0755L50.2388 29.6955L50.6482 29.1401L50.9115 28.7309L51.0284 28.3801L50.5313 28.1463L50.0633 27.9125L49.2445 27.5909L48.4841 27.3571L47.636 27.1817L46.7293 27.094H46.2322L45.5888 27.1525L44.8576 27.2986L44.302 27.474L43.834 27.6786L43.3661 27.9125L43 28L43.2784 27.6202L43.7171 26.9186L44.068 26.7725L44.6529 26.5971L45.1501 26.4802L45.5888 26.4217L45.8227 26.1587L46.2029 25.7202L46.5246 25.2525L46.8756 24.6387L47.1095 24.0833L47.3143 23.4403L47.4605 22.7388L47.5482 21.9495V20.8388L47.4605 19.9911L47.3143 19.1435Z" fill="white" stroke="#FEDB00" stroke-width="0.25"/>
</g>
<defs>
<clipPath id="clip0_325_230">
<rect width="75" height="75" fill="white"/>
</clipPath>
</defs>
</svg>
