<svg width="17" height="23" viewBox="0 0 17 23" fill="none" xmlns="http://www.w3.org/2000/svg">
<mask id="path-1-outside-1_476_194" maskUnits="userSpaceOnUse" x="0" y="0" width="17" height="23" fill="black">
<rect fill="white" width="17" height="23"/>
<path d="M13.8065 1H13.8871L13.9516 1.26087L14.0323 1.7337L14.0806 2.20652V2.82609L14.0323 3.2663L13.9516 3.65761L13.8387 4.0163L13.7097 4.32609L13.5161 4.66848L13.3387 4.92935L13.129 5.17391L13 5.32065L12.7581 5.35326L12.4839 5.41848L12.1613 5.5163L11.9677 5.59783L11.9355 5.66304L11.8871 5.71196L11.7258 5.98913L11.629 6.16848L11.5645 6.28261L11.7742 6.15217L12.0323 6.02174L12.2903 5.90761L12.5968 5.80978L13 5.72826L13.3548 5.69565H13.629L14.129 5.74457L14.5968 5.84239L15.0161 5.97283L15.4677 6.15217L15.7258 6.28261L16 6.41304V6.54348L15.9355 6.6087L15.7903 6.83696L15.5645 7.14674L15.3871 7.3587L15.2742 7.48913L15.0645 7.71739L14.9355 7.83152L14.7742 7.97826L14.5 8.19022L14.2742 8.33696L14.1935 8.40217L14.0484 8.35326L13.4516 8.1413L13.0806 8.04348L12.6452 7.96196L12.3387 7.92935H11.7097L11.3065 7.97826L10.9032 8.07609L10.5323 8.20652L10.4355 8.23913L10.4032 8.30435L10.2903 8.5163L10.0645 8.90761V8.92391L10.2742 8.79348L10.5484 8.64674L10.871 8.5163L11.1935 8.41848L11.5645 8.35326L11.7258 8.33696H12.3387L12.7258 8.38587L13.0968 8.46739L13.4839 8.58152L13.9839 8.77717L14.5161 9.03804L14.5484 9.07065L14.5323 9.15217L14.371 9.39674L14.1774 9.67391L14 9.90217L13.8548 10.0652L13.7419 10.1957L13.4516 10.4891H13.4194V10.5217L13.1935 10.7011L12.9032 10.913L12.5323 11.125L12.4194 11.1739L12.3065 11.1576L11.7742 10.9783L11.4032 10.8804L11.0484 10.8152L10.7742 10.7826L10.4839 10.7663H10.2903L9.8871 10.7989L9.51613 10.8641L9.20968 10.9457L8.82258 11.0924L8.72581 11.2391L8.62903 11.4185L8.43548 11.7609H8.45161L8.72581 11.5978L9.09677 11.4185L9.3871 11.3207L9.72581 11.2391L10.0645 11.1902L10.2903 11.1739H10.4839L10.8871 11.2065L11.2742 11.2717L11.7097 11.3859L12.129 11.5326L12.5323 11.712L12.8871 11.8913L12.9032 11.9076L12.8871 12.0217L12.7097 12.2989L12.5 12.5924L12.2903 12.8533L12.0484 13.1141L11.8387 13.3261L11.7097 13.4402L11.4839 13.6196L11.2419 13.7826L10.9032 13.9783L10.7581 14.0435L10.3226 13.8804L9.85484 13.75L9.53226 13.6848L9.16129 13.6359L8.87097 13.6196H8.62903L8.22581 13.6522L7.80645 13.7337L7.3871 13.8641L7.19355 13.9457L7.04839 14.1902L6.82258 14.5815L6.80645 14.6304L6.96774 14.5163L7.27419 14.3533L7.64516 14.2065L7.91935 14.125L8.27419 14.0598L8.69355 14.0272L9.12903 14.0435L9.5 14.0924L9.91935 14.1902L10.2419 14.288L10.6613 14.4511L11.1129 14.663L11.2903 14.7609L11.2742 14.8424L11.0968 15.1359L10.8871 15.413L10.7419 15.6087L10.5968 15.7717L10.5806 15.8043H10.5484L10.5161 15.8696L10.2258 16.163H10.1935V16.1957L10.0161 16.3424L9.70968 16.5707L9.3871 16.7663L9.16129 16.8804L9 16.8478L8.54839 16.6848L8.32258 16.6196L7.83871 16.5217L7.56452 16.4891L7.27419 16.4728H7.01613L6.70968 16.4891L6.30645 16.5543L5.8871 16.6685L5.56452 16.7989L5.43548 17.0109L5.27419 17.3043L5.17742 17.4674L5.24194 17.4348L5.51613 17.2717L5.87097 17.1087L6.22581 16.9946L6.62903 16.913L7.01613 16.8804H7.30645L7.66129 16.913L7.96774 16.962L8.37097 17.0598L8.8871 17.2391L9.32258 17.4348L9.62903 17.5978L9.67742 17.6304L9.64516 17.712L9.53226 17.875L9.40323 18.0707L9.22581 18.3152L9 18.5924L8.93548 18.6739H8.90323L8.87097 18.7391L8.6129 19L8.48387 19.1141L8.24194 19.3098L8.04839 19.4402L7.75806 19.6196L7.45161 19.7663L7.01613 19.913L6.66129 19.9946L6.3871 20.0272L6.03226 20.0435L5.56452 20.0109L5.04839 19.913L4.64516 19.7826L4.30645 19.6522L4.01613 19.5217L3.95161 19.6033L3.74194 19.9783L3.51613 20.3696L3.32258 20.712L3.09677 21.1033L2.83871 21.5598L2.67742 21.8207L2.54839 21.9348L2.40323 22H2.20968L1.95161 21.8696L1.80645 21.7717L1.72581 21.6902L1.66129 21.5924L1.62903 21.4783V21.3152L1.69355 21.1359L1.95161 20.6793L2.17742 20.288L2.37097 19.9457L2.59677 19.5543L2.80645 19.1793L2.95161 18.9348L2.91935 18.8696L2.69355 18.7065L2.43548 18.4946L2.30645 18.3804L2.16129 18.25V18.2174L2.09677 18.1848V18.1522H2.06452L1.95161 18.0217L1.77419 17.8098L1.58065 17.5326L1.45161 17.3207L1.32258 17.0761L1.19355 16.75L1.09677 16.4239L1.01613 15.9674L1 15.7228V15.3967L1.03226 15.038L1.09677 14.6467L1.20968 14.2228L1.32258 13.8967L1.48387 13.4891L1.70968 13.0326L1.75806 13L2.06452 13.1957L2.33871 13.3913L2.6129 13.6196L2.74194 13.7337L2.98387 13.962L3.22581 14.2228L3.40323 14.4511L3.54839 14.663L3.70968 14.9402L3.83871 15.2011L3.98387 15.6087L4.06452 15.9348L4.1129 16.2609L4.14516 16.8315L4.37097 16.4402L4.46774 16.2772L4.48387 16.2283V16L4.40323 15.625L4.32258 15.3478L4.19355 15.0217L4.06452 14.7446L3.90323 14.4674L3.82258 14.3533V14.3207L3.77419 14.3043L3.74194 14.2391L3.67742 14.1739L3.66129 14.1413L3.6129 14.0761L3.58065 14.0435L3.54839 13.9783L3.37097 13.7826L3.25806 13.6522L3.17742 13.587L2.93548 13.3424L2.83871 13.2772L2.80645 13.2609L2.75806 13.212L2.69355 13.163V13.1304H2.66129L2.62903 12.9348V12.4783L2.67742 12.0543L2.75806 11.6467L2.90323 11.1739L3.03226 10.8315L3.20968 10.4402L3.33871 10.163L3.3871 10.1467L3.69355 10.3424L4 10.5707L4.16129 10.7011L4.37097 10.8804L4.48387 10.9946L4.53226 11.0272V11.0598L4.59677 11.0924L4.70968 11.2228L4.82258 11.337L4.96774 11.5163L5.17742 11.8098L5.32258 12.0543L5.51613 12.462L5.6129 12.7554L5.69355 13.0815L5.74194 13.4402L5.75806 13.7011V14.0109L5.91935 13.7174L6.01613 13.5707L6.1129 13.375V13.1793L6.06452 12.9022L5.98387 12.6087L5.87097 12.2826L5.67742 11.875L5.54839 11.6467L5.43548 11.4837V11.4511L5.3871 11.4348L5.35484 11.3696L5.33871 11.3207L5.29032 11.3043L5.22581 11.2065L5.19355 11.1739L5.16129 11.1087L4.96774 10.8967L4.8871 10.7989L4.75806 10.6848L4.6129 10.538L4.53226 10.4891L4.48387 10.4565V10.4239L4.41935 10.4076L4.3871 10.3587L4.33871 10.3424V10.3098H4.30645L4.25806 10.1957V9.6087L4.30645 9.18478L4.3871 8.79348L4.53226 8.32065L4.66129 7.97826L4.80645 7.65217L4.95161 7.34239L4.98387 7.30978L5.04839 7.32609L5.24194 7.44022L5.40323 7.55435L5.62903 7.71739L5.90323 7.94565L6.03226 8.05978L6.1129 8.1413L6.16129 8.17391L6.17742 8.20652L6.24194 8.22283V8.27174L6.27419 8.28804L6.29032 8.25543L6.32258 8.30435L6.29032 8.32065L6.37097 8.33696V8.40217L6.51613 8.56522L6.72581 8.84239L6.90323 9.11957L7.06452 9.42935L7.19355 9.75543L7.29032 10.0978L7.33871 10.3261L7.37097 10.587L7.3871 10.8478V11.1739L7.58065 10.8152L7.72581 10.5707L7.75806 10.4402L7.69355 10.0489L7.58065 9.65761L7.45161 9.31522L7.29032 8.98913L7.08065 8.64674L6.95161 8.4837V8.45109L6.90323 8.43478V8.40217H6.87097L6.83871 8.33696L6.80645 8.30435L6.77419 8.23913L6.54839 7.99457L6.29032 7.7337L6.25806 7.71739V7.68478L6.19355 7.65217L6.12903 7.60326H6.09677L6.06452 7.53804H6.03226L5.90323 7.40761L5.8871 7.27717V6.72283L5.93548 6.33152L6.01613 5.94022L6.14516 5.5163L6.27419 5.15761L6.46774 4.71739L6.6129 4.45652L6.67742 4.47283L6.96774 4.65217L7.16129 4.79891L7.43548 5.01087L7.67742 5.22283L7.72581 5.27174H7.77419V5.32065L7.87097 5.35326L7.83871 5.38587L7.93548 5.41848L7.90323 5.45109L7.98387 5.46739V5.53261L8.14516 5.71196L8.3871 6.03804L8.51613 6.25L8.6129 6.41304L8.77419 6.77174L8.90323 7.17935L8.96774 7.48913L9 7.7337L9.03226 8.23913L9.04839 8.25543L9.29032 7.81522L9.37097 7.70109L9.3871 7.58696L9.32258 7.21196L9.20968 6.82065L9.1129 6.54348L8.91935 6.13587L8.70968 5.79348L8.56452 5.59783V5.56522H8.53226L8.46774 5.46739L8.43548 5.45109L8.3871 5.36957L8.14516 5.1087L7.96774 4.92935L7.83871 4.81522L7.77419 4.75L7.70968 4.7337L7.67742 4.68478L7.6129 4.65217V4.61957L7.53226 4.58696L7.41935 4.47283L7.40323 4.44022L7.41935 4.03261L7.48387 3.59239L7.56452 3.25L7.67742 2.875L7.83871 2.46739L8.01613 2.07609L8.12903 1.86413L8.16129 1.84783L8.41935 2.01087L8.69355 2.20652L8.91935 2.38587L9.12903 2.56522L9.32258 2.74457L9.51613 2.94022L9.66129 3.11957L9.83871 3.34783L9.95161 3.51087L10.1452 3.85326L10.2903 4.17935L10.3871 4.45652L10.4839 4.91304L10.5161 5.20652L10.5323 5.64674L10.629 5.4837L10.8065 5.17391L10.8871 5.01087L10.871 4.7663L10.7742 4.34239L10.6452 3.95109L10.6613 3.83696L10.7742 3.49457L10.9032 3.20109L11.0968 2.8587L11.2742 2.61413L11.4677 2.38587L11.7581 2.09239L11.9839 1.91304L12.2097 1.75L12.4194 1.61957L12.6774 1.47283L12.9355 1.34239L13.3226 1.17935L13.5968 1.08152L13.7903 1.0163L13.8065 1ZM9 8.28804L9.01613 8.35326L9.03226 8.28804H9Z"/>
</mask>
<path d="M13.8065 1H13.8871L13.9516 1.26087L14.0323 1.7337L14.0806 2.20652V2.82609L14.0323 3.2663L13.9516 3.65761L13.8387 4.0163L13.7097 4.32609L13.5161 4.66848L13.3387 4.92935L13.129 5.17391L13 5.32065L12.7581 5.35326L12.4839 5.41848L12.1613 5.5163L11.9677 5.59783L11.9355 5.66304L11.8871 5.71196L11.7258 5.98913L11.629 6.16848L11.5645 6.28261L11.7742 6.15217L12.0323 6.02174L12.2903 5.90761L12.5968 5.80978L13 5.72826L13.3548 5.69565H13.629L14.129 5.74457L14.5968 5.84239L15.0161 5.97283L15.4677 6.15217L15.7258 6.28261L16 6.41304V6.54348L15.9355 6.6087L15.7903 6.83696L15.5645 7.14674L15.3871 7.3587L15.2742 7.48913L15.0645 7.71739L14.9355 7.83152L14.7742 7.97826L14.5 8.19022L14.2742 8.33696L14.1935 8.40217L14.0484 8.35326L13.4516 8.1413L13.0806 8.04348L12.6452 7.96196L12.3387 7.92935H11.7097L11.3065 7.97826L10.9032 8.07609L10.5323 8.20652L10.4355 8.23913L10.4032 8.30435L10.2903 8.5163L10.0645 8.90761V8.92391L10.2742 8.79348L10.5484 8.64674L10.871 8.5163L11.1935 8.41848L11.5645 8.35326L11.7258 8.33696H12.3387L12.7258 8.38587L13.0968 8.46739L13.4839 8.58152L13.9839 8.77717L14.5161 9.03804L14.5484 9.07065L14.5323 9.15217L14.371 9.39674L14.1774 9.67391L14 9.90217L13.8548 10.0652L13.7419 10.1957L13.4516 10.4891H13.4194V10.5217L13.1935 10.7011L12.9032 10.913L12.5323 11.125L12.4194 11.1739L12.3065 11.1576L11.7742 10.9783L11.4032 10.8804L11.0484 10.8152L10.7742 10.7826L10.4839 10.7663H10.2903L9.8871 10.7989L9.51613 10.8641L9.20968 10.9457L8.82258 11.0924L8.72581 11.2391L8.62903 11.4185L8.43548 11.7609H8.45161L8.72581 11.5978L9.09677 11.4185L9.3871 11.3207L9.72581 11.2391L10.0645 11.1902L10.2903 11.1739H10.4839L10.8871 11.2065L11.2742 11.2717L11.7097 11.3859L12.129 11.5326L12.5323 11.712L12.8871 11.8913L12.9032 11.9076L12.8871 12.0217L12.7097 12.2989L12.5 12.5924L12.2903 12.8533L12.0484 13.1141L11.8387 13.3261L11.7097 13.4402L11.4839 13.6196L11.2419 13.7826L10.9032 13.9783L10.7581 14.0435L10.3226 13.8804L9.85484 13.75L9.53226 13.6848L9.16129 13.6359L8.87097 13.6196H8.62903L8.22581 13.6522L7.80645 13.7337L7.3871 13.8641L7.19355 13.9457L7.04839 14.1902L6.82258 14.5815L6.80645 14.6304L6.96774 14.5163L7.27419 14.3533L7.64516 14.2065L7.91935 14.125L8.27419 14.0598L8.69355 14.0272L9.12903 14.0435L9.5 14.0924L9.91935 14.1902L10.2419 14.288L10.6613 14.4511L11.1129 14.663L11.2903 14.7609L11.2742 14.8424L11.0968 15.1359L10.8871 15.413L10.7419 15.6087L10.5968 15.7717L10.5806 15.8043H10.5484L10.5161 15.8696L10.2258 16.163H10.1935V16.1957L10.0161 16.3424L9.70968 16.5707L9.3871 16.7663L9.16129 16.8804L9 16.8478L8.54839 16.6848L8.32258 16.6196L7.83871 16.5217L7.56452 16.4891L7.27419 16.4728H7.01613L6.70968 16.4891L6.30645 16.5543L5.8871 16.6685L5.56452 16.7989L5.43548 17.0109L5.27419 17.3043L5.17742 17.4674L5.24194 17.4348L5.51613 17.2717L5.87097 17.1087L6.22581 16.9946L6.62903 16.913L7.01613 16.8804H7.30645L7.66129 16.913L7.96774 16.962L8.37097 17.0598L8.8871 17.2391L9.32258 17.4348L9.62903 17.5978L9.67742 17.6304L9.64516 17.712L9.53226 17.875L9.40323 18.0707L9.22581 18.3152L9 18.5924L8.93548 18.6739H8.90323L8.87097 18.7391L8.6129 19L8.48387 19.1141L8.24194 19.3098L8.04839 19.4402L7.75806 19.6196L7.45161 19.7663L7.01613 19.913L6.66129 19.9946L6.3871 20.0272L6.03226 20.0435L5.56452 20.0109L5.04839 19.913L4.64516 19.7826L4.30645 19.6522L4.01613 19.5217L3.95161 19.6033L3.74194 19.9783L3.51613 20.3696L3.32258 20.712L3.09677 21.1033L2.83871 21.5598L2.67742 21.8207L2.54839 21.9348L2.40323 22H2.20968L1.95161 21.8696L1.80645 21.7717L1.72581 21.6902L1.66129 21.5924L1.62903 21.4783V21.3152L1.69355 21.1359L1.95161 20.6793L2.17742 20.288L2.37097 19.9457L2.59677 19.5543L2.80645 19.1793L2.95161 18.9348L2.91935 18.8696L2.69355 18.7065L2.43548 18.4946L2.30645 18.3804L2.16129 18.25V18.2174L2.09677 18.1848V18.1522H2.06452L1.95161 18.0217L1.77419 17.8098L1.58065 17.5326L1.45161 17.3207L1.32258 17.0761L1.19355 16.75L1.09677 16.4239L1.01613 15.9674L1 15.7228V15.3967L1.03226 15.038L1.09677 14.6467L1.20968 14.2228L1.32258 13.8967L1.48387 13.4891L1.70968 13.0326L1.75806 13L2.06452 13.1957L2.33871 13.3913L2.6129 13.6196L2.74194 13.7337L2.98387 13.962L3.22581 14.2228L3.40323 14.4511L3.54839 14.663L3.70968 14.9402L3.83871 15.2011L3.98387 15.6087L4.06452 15.9348L4.1129 16.2609L4.14516 16.8315L4.37097 16.4402L4.46774 16.2772L4.48387 16.2283V16L4.40323 15.625L4.32258 15.3478L4.19355 15.0217L4.06452 14.7446L3.90323 14.4674L3.82258 14.3533V14.3207L3.77419 14.3043L3.74194 14.2391L3.67742 14.1739L3.66129 14.1413L3.6129 14.0761L3.58065 14.0435L3.54839 13.9783L3.37097 13.7826L3.25806 13.6522L3.17742 13.587L2.93548 13.3424L2.83871 13.2772L2.80645 13.2609L2.75806 13.212L2.69355 13.163V13.1304H2.66129L2.62903 12.9348V12.4783L2.67742 12.0543L2.75806 11.6467L2.90323 11.1739L3.03226 10.8315L3.20968 10.4402L3.33871 10.163L3.3871 10.1467L3.69355 10.3424L4 10.5707L4.16129 10.7011L4.37097 10.8804L4.48387 10.9946L4.53226 11.0272V11.0598L4.59677 11.0924L4.70968 11.2228L4.82258 11.337L4.96774 11.5163L5.17742 11.8098L5.32258 12.0543L5.51613 12.462L5.6129 12.7554L5.69355 13.0815L5.74194 13.4402L5.75806 13.7011V14.0109L5.91935 13.7174L6.01613 13.5707L6.1129 13.375V13.1793L6.06452 12.9022L5.98387 12.6087L5.87097 12.2826L5.67742 11.875L5.54839 11.6467L5.43548 11.4837V11.4511L5.3871 11.4348L5.35484 11.3696L5.33871 11.3207L5.29032 11.3043L5.22581 11.2065L5.19355 11.1739L5.16129 11.1087L4.96774 10.8967L4.8871 10.7989L4.75806 10.6848L4.6129 10.538L4.53226 10.4891L4.48387 10.4565V10.4239L4.41935 10.4076L4.3871 10.3587L4.33871 10.3424V10.3098H4.30645L4.25806 10.1957V9.6087L4.30645 9.18478L4.3871 8.79348L4.53226 8.32065L4.66129 7.97826L4.80645 7.65217L4.95161 7.34239L4.98387 7.30978L5.04839 7.32609L5.24194 7.44022L5.40323 7.55435L5.62903 7.71739L5.90323 7.94565L6.03226 8.05978L6.1129 8.1413L6.16129 8.17391L6.17742 8.20652L6.24194 8.22283V8.27174L6.27419 8.28804L6.29032 8.25543L6.32258 8.30435L6.29032 8.32065L6.37097 8.33696V8.40217L6.51613 8.56522L6.72581 8.84239L6.90323 9.11957L7.06452 9.42935L7.19355 9.75543L7.29032 10.0978L7.33871 10.3261L7.37097 10.587L7.3871 10.8478V11.1739L7.58065 10.8152L7.72581 10.5707L7.75806 10.4402L7.69355 10.0489L7.58065 9.65761L7.45161 9.31522L7.29032 8.98913L7.08065 8.64674L6.95161 8.4837V8.45109L6.90323 8.43478V8.40217H6.87097L6.83871 8.33696L6.80645 8.30435L6.77419 8.23913L6.54839 7.99457L6.29032 7.7337L6.25806 7.71739V7.68478L6.19355 7.65217L6.12903 7.60326H6.09677L6.06452 7.53804H6.03226L5.90323 7.40761L5.8871 7.27717V6.72283L5.93548 6.33152L6.01613 5.94022L6.14516 5.5163L6.27419 5.15761L6.46774 4.71739L6.6129 4.45652L6.67742 4.47283L6.96774 4.65217L7.16129 4.79891L7.43548 5.01087L7.67742 5.22283L7.72581 5.27174H7.77419V5.32065L7.87097 5.35326L7.83871 5.38587L7.93548 5.41848L7.90323 5.45109L7.98387 5.46739V5.53261L8.14516 5.71196L8.3871 6.03804L8.51613 6.25L8.6129 6.41304L8.77419 6.77174L8.90323 7.17935L8.96774 7.48913L9 7.7337L9.03226 8.23913L9.04839 8.25543L9.29032 7.81522L9.37097 7.70109L9.3871 7.58696L9.32258 7.21196L9.20968 6.82065L9.1129 6.54348L8.91935 6.13587L8.70968 5.79348L8.56452 5.59783V5.56522H8.53226L8.46774 5.46739L8.43548 5.45109L8.3871 5.36957L8.14516 5.1087L7.96774 4.92935L7.83871 4.81522L7.77419 4.75L7.70968 4.7337L7.67742 4.68478L7.6129 4.65217V4.61957L7.53226 4.58696L7.41935 4.47283L7.40323 4.44022L7.41935 4.03261L7.48387 3.59239L7.56452 3.25L7.67742 2.875L7.83871 2.46739L8.01613 2.07609L8.12903 1.86413L8.16129 1.84783L8.41935 2.01087L8.69355 2.20652L8.91935 2.38587L9.12903 2.56522L9.32258 2.74457L9.51613 2.94022L9.66129 3.11957L9.83871 3.34783L9.95161 3.51087L10.1452 3.85326L10.2903 4.17935L10.3871 4.45652L10.4839 4.91304L10.5161 5.20652L10.5323 5.64674L10.629 5.4837L10.8065 5.17391L10.8871 5.01087L10.871 4.7663L10.7742 4.34239L10.6452 3.95109L10.6613 3.83696L10.7742 3.49457L10.9032 3.20109L11.0968 2.8587L11.2742 2.61413L11.4677 2.38587L11.7581 2.09239L11.9839 1.91304L12.2097 1.75L12.4194 1.61957L12.6774 1.47283L12.9355 1.34239L13.3226 1.17935L13.5968 1.08152L13.7903 1.0163L13.8065 1ZM9 8.28804L9.01613 8.35326L9.03226 8.28804H9Z" fill="#FEDB00"/>
<path d="M13.8065 1H13.8871L13.9516 1.26087L14.0323 1.7337L14.0806 2.20652V2.82609L14.0323 3.2663L13.9516 3.65761L13.8387 4.0163L13.7097 4.32609L13.5161 4.66848L13.3387 4.92935L13.129 5.17391L13 5.32065L12.7581 5.35326L12.4839 5.41848L12.1613 5.5163L11.9677 5.59783L11.9355 5.66304L11.8871 5.71196L11.7258 5.98913L11.629 6.16848L11.5645 6.28261L11.7742 6.15217L12.0323 6.02174L12.2903 5.90761L12.5968 5.80978L13 5.72826L13.3548 5.69565H13.629L14.129 5.74457L14.5968 5.84239L15.0161 5.97283L15.4677 6.15217L15.7258 6.28261L16 6.41304V6.54348L15.9355 6.6087L15.7903 6.83696L15.5645 7.14674L15.3871 7.3587L15.2742 7.48913L15.0645 7.71739L14.9355 7.83152L14.7742 7.97826L14.5 8.19022L14.2742 8.33696L14.1935 8.40217L14.0484 8.35326L13.4516 8.1413L13.0806 8.04348L12.6452 7.96196L12.3387 7.92935H11.7097L11.3065 7.97826L10.9032 8.07609L10.5323 8.20652L10.4355 8.23913L10.4032 8.30435L10.2903 8.5163L10.0645 8.90761V8.92391L10.2742 8.79348L10.5484 8.64674L10.871 8.5163L11.1935 8.41848L11.5645 8.35326L11.7258 8.33696H12.3387L12.7258 8.38587L13.0968 8.46739L13.4839 8.58152L13.9839 8.77717L14.5161 9.03804L14.5484 9.07065L14.5323 9.15217L14.371 9.39674L14.1774 9.67391L14 9.90217L13.8548 10.0652L13.7419 10.1957L13.4516 10.4891H13.4194V10.5217L13.1935 10.7011L12.9032 10.913L12.5323 11.125L12.4194 11.1739L12.3065 11.1576L11.7742 10.9783L11.4032 10.8804L11.0484 10.8152L10.7742 10.7826L10.4839 10.7663H10.2903L9.8871 10.7989L9.51613 10.8641L9.20968 10.9457L8.82258 11.0924L8.72581 11.2391L8.62903 11.4185L8.43548 11.7609H8.45161L8.72581 11.5978L9.09677 11.4185L9.3871 11.3207L9.72581 11.2391L10.0645 11.1902L10.2903 11.1739H10.4839L10.8871 11.2065L11.2742 11.2717L11.7097 11.3859L12.129 11.5326L12.5323 11.712L12.8871 11.8913L12.9032 11.9076L12.8871 12.0217L12.7097 12.2989L12.5 12.5924L12.2903 12.8533L12.0484 13.1141L11.8387 13.3261L11.7097 13.4402L11.4839 13.6196L11.2419 13.7826L10.9032 13.9783L10.7581 14.0435L10.3226 13.8804L9.85484 13.75L9.53226 13.6848L9.16129 13.6359L8.87097 13.6196H8.62903L8.22581 13.6522L7.80645 13.7337L7.3871 13.8641L7.19355 13.9457L7.04839 14.1902L6.82258 14.5815L6.80645 14.6304L6.96774 14.5163L7.27419 14.3533L7.64516 14.2065L7.91935 14.125L8.27419 14.0598L8.69355 14.0272L9.12903 14.0435L9.5 14.0924L9.91935 14.1902L10.2419 14.288L10.6613 14.4511L11.1129 14.663L11.2903 14.7609L11.2742 14.8424L11.0968 15.1359L10.8871 15.413L10.7419 15.6087L10.5968 15.7717L10.5806 15.8043H10.5484L10.5161 15.8696L10.2258 16.163H10.1935V16.1957L10.0161 16.3424L9.70968 16.5707L9.3871 16.7663L9.16129 16.8804L9 16.8478L8.54839 16.6848L8.32258 16.6196L7.83871 16.5217L7.56452 16.4891L7.27419 16.4728H7.01613L6.70968 16.4891L6.30645 16.5543L5.8871 16.6685L5.56452 16.7989L5.43548 17.0109L5.27419 17.3043L5.17742 17.4674L5.24194 17.4348L5.51613 17.2717L5.87097 17.1087L6.22581 16.9946L6.62903 16.913L7.01613 16.8804H7.30645L7.66129 16.913L7.96774 16.962L8.37097 17.0598L8.8871 17.2391L9.32258 17.4348L9.62903 17.5978L9.67742 17.6304L9.64516 17.712L9.53226 17.875L9.40323 18.0707L9.22581 18.3152L9 18.5924L8.93548 18.6739H8.90323L8.87097 18.7391L8.6129 19L8.48387 19.1141L8.24194 19.3098L8.04839 19.4402L7.75806 19.6196L7.45161 19.7663L7.01613 19.913L6.66129 19.9946L6.3871 20.0272L6.03226 20.0435L5.56452 20.0109L5.04839 19.913L4.64516 19.7826L4.30645 19.6522L4.01613 19.5217L3.95161 19.6033L3.74194 19.9783L3.51613 20.3696L3.32258 20.712L3.09677 21.1033L2.83871 21.5598L2.67742 21.8207L2.54839 21.9348L2.40323 22H2.20968L1.95161 21.8696L1.80645 21.7717L1.72581 21.6902L1.66129 21.5924L1.62903 21.4783V21.3152L1.69355 21.1359L1.95161 20.6793L2.17742 20.288L2.37097 19.9457L2.59677 19.5543L2.80645 19.1793L2.95161 18.9348L2.91935 18.8696L2.69355 18.7065L2.43548 18.4946L2.30645 18.3804L2.16129 18.25V18.2174L2.09677 18.1848V18.1522H2.06452L1.95161 18.0217L1.77419 17.8098L1.58065 17.5326L1.45161 17.3207L1.32258 17.0761L1.19355 16.75L1.09677 16.4239L1.01613 15.9674L1 15.7228V15.3967L1.03226 15.038L1.09677 14.6467L1.20968 14.2228L1.32258 13.8967L1.48387 13.4891L1.70968 13.0326L1.75806 13L2.06452 13.1957L2.33871 13.3913L2.6129 13.6196L2.74194 13.7337L2.98387 13.962L3.22581 14.2228L3.40323 14.4511L3.54839 14.663L3.70968 14.9402L3.83871 15.2011L3.98387 15.6087L4.06452 15.9348L4.1129 16.2609L4.14516 16.8315L4.37097 16.4402L4.46774 16.2772L4.48387 16.2283V16L4.40323 15.625L4.32258 15.3478L4.19355 15.0217L4.06452 14.7446L3.90323 14.4674L3.82258 14.3533V14.3207L3.77419 14.3043L3.74194 14.2391L3.67742 14.1739L3.66129 14.1413L3.6129 14.0761L3.58065 14.0435L3.54839 13.9783L3.37097 13.7826L3.25806 13.6522L3.17742 13.587L2.93548 13.3424L2.83871 13.2772L2.80645 13.2609L2.75806 13.212L2.69355 13.163V13.1304H2.66129L2.62903 12.9348V12.4783L2.67742 12.0543L2.75806 11.6467L2.90323 11.1739L3.03226 10.8315L3.20968 10.4402L3.33871 10.163L3.3871 10.1467L3.69355 10.3424L4 10.5707L4.16129 10.7011L4.37097 10.8804L4.48387 10.9946L4.53226 11.0272V11.0598L4.59677 11.0924L4.70968 11.2228L4.82258 11.337L4.96774 11.5163L5.17742 11.8098L5.32258 12.0543L5.51613 12.462L5.6129 12.7554L5.69355 13.0815L5.74194 13.4402L5.75806 13.7011V14.0109L5.91935 13.7174L6.01613 13.5707L6.1129 13.375V13.1793L6.06452 12.9022L5.98387 12.6087L5.87097 12.2826L5.67742 11.875L5.54839 11.6467L5.43548 11.4837V11.4511L5.3871 11.4348L5.35484 11.3696L5.33871 11.3207L5.29032 11.3043L5.22581 11.2065L5.19355 11.1739L5.16129 11.1087L4.96774 10.8967L4.8871 10.7989L4.75806 10.6848L4.6129 10.538L4.53226 10.4891L4.48387 10.4565V10.4239L4.41935 10.4076L4.3871 10.3587L4.33871 10.3424V10.3098H4.30645L4.25806 10.1957V9.6087L4.30645 9.18478L4.3871 8.79348L4.53226 8.32065L4.66129 7.97826L4.80645 7.65217L4.95161 7.34239L4.98387 7.30978L5.04839 7.32609L5.24194 7.44022L5.40323 7.55435L5.62903 7.71739L5.90323 7.94565L6.03226 8.05978L6.1129 8.1413L6.16129 8.17391L6.17742 8.20652L6.24194 8.22283V8.27174L6.27419 8.28804L6.29032 8.25543L6.32258 8.30435L6.29032 8.32065L6.37097 8.33696V8.40217L6.51613 8.56522L6.72581 8.84239L6.90323 9.11957L7.06452 9.42935L7.19355 9.75543L7.29032 10.0978L7.33871 10.3261L7.37097 10.587L7.3871 10.8478V11.1739L7.58065 10.8152L7.72581 10.5707L7.75806 10.4402L7.69355 10.0489L7.58065 9.65761L7.45161 9.31522L7.29032 8.98913L7.08065 8.64674L6.95161 8.4837V8.45109L6.90323 8.43478V8.40217H6.87097L6.83871 8.33696L6.80645 8.30435L6.77419 8.23913L6.54839 7.99457L6.29032 7.7337L6.25806 7.71739V7.68478L6.19355 7.65217L6.12903 7.60326H6.09677L6.06452 7.53804H6.03226L5.90323 7.40761L5.8871 7.27717V6.72283L5.93548 6.33152L6.01613 5.94022L6.14516 5.5163L6.27419 5.15761L6.46774 4.71739L6.6129 4.45652L6.67742 4.47283L6.96774 4.65217L7.16129 4.79891L7.43548 5.01087L7.67742 5.22283L7.72581 5.27174H7.77419V5.32065L7.87097 5.35326L7.83871 5.38587L7.93548 5.41848L7.90323 5.45109L7.98387 5.46739V5.53261L8.14516 5.71196L8.3871 6.03804L8.51613 6.25L8.6129 6.41304L8.77419 6.77174L8.90323 7.17935L8.96774 7.48913L9 7.7337L9.03226 8.23913L9.04839 8.25543L9.29032 7.81522L9.37097 7.70109L9.3871 7.58696L9.32258 7.21196L9.20968 6.82065L9.1129 6.54348L8.91935 6.13587L8.70968 5.79348L8.56452 5.59783V5.56522H8.53226L8.46774 5.46739L8.43548 5.45109L8.3871 5.36957L8.14516 5.1087L7.96774 4.92935L7.83871 4.81522L7.77419 4.75L7.70968 4.7337L7.67742 4.68478L7.6129 4.65217V4.61957L7.53226 4.58696L7.41935 4.47283L7.40323 4.44022L7.41935 4.03261L7.48387 3.59239L7.56452 3.25L7.67742 2.875L7.83871 2.46739L8.01613 2.07609L8.12903 1.86413L8.16129 1.84783L8.41935 2.01087L8.69355 2.20652L8.91935 2.38587L9.12903 2.56522L9.32258 2.74457L9.51613 2.94022L9.66129 3.11957L9.83871 3.34783L9.95161 3.51087L10.1452 3.85326L10.2903 4.17935L10.3871 4.45652L10.4839 4.91304L10.5161 5.20652L10.5323 5.64674L10.629 5.4837L10.8065 5.17391L10.8871 5.01087L10.871 4.7663L10.7742 4.34239L10.6452 3.95109L10.6613 3.83696L10.7742 3.49457L10.9032 3.20109L11.0968 2.8587L11.2742 2.61413L11.4677 2.38587L11.7581 2.09239L11.9839 1.91304L12.2097 1.75L12.4194 1.61957L12.6774 1.47283L12.9355 1.34239L13.3226 1.17935L13.5968 1.08152L13.7903 1.0163L13.8065 1ZM9 8.28804L9.01613 8.35326L9.03226 8.28804H9Z" stroke="black" mask="url(#path-1-outside-1_476_194)"/>
</svg>
