<svg width="375" height="725" viewBox="0 0 375 725" fill="none" xmlns="http://www.w3.org/2000/svg">
<path fill-rule="evenodd" clip-rule="evenodd" d="M375 0H0V725H375V0ZM230.238 281H229.598L229.47 281.127L227.934 281.637L225.759 282.401L222.688 283.674L220.641 284.693L218.594 285.839L216.93 286.857L215.139 288.13L213.347 289.531L211.044 291.823L209.509 293.606L208.101 295.516L206.566 298.189L205.542 300.481L204.646 303.155L204.518 304.047L205.542 307.102L206.31 310.413L206.438 312.323L205.798 313.596L204.39 316.016L203.623 317.289L203.495 313.851L203.239 311.559L202.471 307.994L201.703 305.829L200.552 303.283L199.016 300.609L198.12 299.335L196.713 297.553L195.561 296.152L194.026 294.624L192.49 293.224L190.827 291.823L189.035 290.422L186.86 288.894L184.813 287.621L184.557 287.748L183.661 289.404L182.254 292.46L180.974 295.643L180.078 298.571L179.439 301.245L178.927 304.683L178.799 307.866L178.927 308.121L179.823 309.012L180.462 309.267V309.522L180.974 309.776L181.23 310.158L181.742 310.286L182.254 310.795L183.277 311.686L184.685 313.087L186.604 315.124L186.988 315.761L187.244 315.888L187.756 316.652H188.012V316.907L189.163 318.435L190.827 321.109L192.362 324.292L193.13 326.457L194.026 329.512L194.538 332.441L194.41 333.332L193.77 334.224L191.851 337.661L191.723 337.534L191.467 333.587L191.211 331.677L190.699 329.258L189.675 326.075L188.396 323.273L187.628 322L186.604 320.345L184.685 317.798L183.405 316.398V315.888L182.766 315.761L183.021 315.506L182.254 315.252L182.51 314.997L181.742 314.742V314.36H181.358L180.974 313.978L179.055 312.323L176.88 310.668L175.344 309.522L173.041 308.121L172.529 307.994L171.377 310.031L169.842 313.469L168.818 316.27L167.795 319.581L167.155 322.637L166.771 325.693V330.022L166.899 331.04L167.923 332.059H168.178L168.434 332.568H168.69L169.202 332.95L169.714 333.205V333.46L169.97 333.587L172.017 335.624L173.809 337.534L174.065 338.043L174.32 338.298L174.576 338.807H174.832V339.062L175.216 339.189V339.444L176.24 340.717L177.903 343.391L179.183 345.938L180.206 348.612L181.102 351.668L181.614 354.724L181.358 355.742L180.206 357.652L178.671 360.453V357.907L178.543 355.87L178.287 353.832L177.903 352.05L177.135 349.376L176.112 346.829L174.832 344.41L173.425 342.245L171.761 340.081L170.61 338.807V338.298L169.97 338.171L170.226 338.043L169.97 337.661L169.842 337.916L169.586 337.789V337.407L169.074 337.28L168.946 337.025L168.562 336.77L167.923 336.134L166.899 335.242L164.724 333.46L162.932 332.186L161.653 331.295L160.117 330.404L159.605 330.276L159.349 330.531L158.198 332.95L157.046 335.497L156.023 338.171L154.871 341.863L154.231 344.919L153.847 348.23V352.814L154.231 353.705H154.487V353.96L154.871 354.087L155.127 354.469L155.639 354.596V354.851L156.023 355.106L156.662 355.488L157.814 356.634L158.838 357.525L159.477 358.289L161.013 359.944L161.269 360.453L161.525 360.708L162.037 361.472L162.42 361.599L162.548 361.981L162.804 362.491L163.188 362.618V362.873L164.084 364.146L165.108 365.929L166.643 369.112L167.539 371.658L168.178 373.95L168.562 376.115V377.643L167.795 379.171L167.027 380.317L165.747 382.609V380.189L165.619 378.152L165.235 375.351L164.596 372.804L163.828 370.512L162.292 367.329L161.141 365.419L159.477 363.127L158.326 361.727L157.43 360.835L156.534 359.817L156.023 359.562V359.307L155.639 359.053L154.743 358.161L153.08 356.761L151.8 355.742L149.369 353.96L146.938 352.432L146.554 352.559L145.53 354.724L144.123 357.78L143.099 360.453L141.947 364.146L141.308 367.329L140.924 370.64V374.205L141.18 375.733H141.435V375.988L141.947 376.37L142.331 376.752L142.587 376.879L143.355 377.388L145.274 379.298L145.914 379.807L146.81 380.826L148.217 382.354L148.473 382.863L148.729 383.118L149.113 383.627L149.241 383.882L149.753 384.391L150.009 384.901L150.392 385.028V385.283L151.032 386.174L152.312 388.339L153.335 390.503L154.359 393.05L154.999 395.214L155.639 398.143V399.925L155.511 400.307L154.743 401.581L152.952 404.637L152.696 400.18L152.312 397.634L151.672 395.087L150.52 391.904L149.497 389.866L148.217 387.702L147.066 386.047L145.658 384.264L143.739 382.227L141.819 380.444L140.796 379.553L138.62 377.77L136.445 376.242L134.014 374.714L133.63 374.969L131.839 378.534L130.559 381.717L129.663 384.264L128.768 387.575L128.256 390.63L128 393.432V395.978L128.128 397.888L128.768 401.453L129.535 404L130.559 406.547L131.583 408.457L132.606 410.112L134.142 412.276L135.549 413.932L136.445 414.95H136.701V415.205L137.213 415.46V415.714L138.365 416.733L139.388 417.624L141.435 419.28L143.227 420.553L143.483 421.062L142.331 422.972L140.668 425.901L138.876 428.957L137.341 431.63L135.549 434.686L133.502 438.252L132.99 439.652V440.925L133.246 441.817L133.758 442.581L134.398 443.217L135.549 443.981L137.597 445H139.132L140.284 444.491L141.308 443.599L142.587 441.562L144.634 437.997L146.426 434.941L147.961 432.267L149.753 429.211L151.416 426.283L151.928 425.646L154.231 426.665L156.918 427.683L160.117 428.702L164.212 429.466L167.923 429.721L170.738 429.593L172.913 429.339L175.728 428.702L179.183 427.556L181.614 426.41L183.917 425.009L185.453 423.991L187.372 422.463L188.396 421.571L190.443 419.534L190.699 419.025H190.955L191.467 418.388L193.258 416.224L194.666 414.314L195.689 412.786L196.585 411.512L196.841 410.876L196.457 410.621L194.026 409.348L190.571 407.82L186.476 406.419L183.277 405.655L180.846 405.273L178.031 405.019H175.728L172.657 405.273L169.458 405.91L166.643 406.801L163.828 408.075L161.653 409.348L161.141 409.603L161.909 408.329L163.188 406.037L164.212 404.382L166.771 403.363L170.098 402.472L173.297 401.963L175.728 401.835H177.775L180.078 401.963L182.254 402.217L186.092 402.981L187.884 403.491L191.467 404.764L192.746 405.019L194.538 404.127L197.097 402.599L199.528 400.817L200.935 399.671V399.416H201.191L203.495 397.124L203.751 396.615H204.006L204.134 396.36L205.286 395.087L206.438 393.559L208.101 391.394L209.509 389.102L209.637 388.466L208.229 387.702L204.646 386.047L201.319 384.773L198.76 384.009L195.433 383.245L192.49 382.863L189.035 382.736L185.709 382.991L182.894 383.5L180.718 384.137L177.775 385.283L175.344 386.556L174.065 387.447L174.192 387.065L175.984 384.009L177.135 382.099L178.671 381.463L181.998 380.444L185.325 379.807L188.524 379.553H190.443L192.746 379.68L195.689 380.062L198.248 380.571L201.959 381.59L205.414 382.863L206.566 382.354L209.253 380.826L211.172 379.553L212.963 378.152L213.987 377.261L215.651 375.606L217.57 373.568L219.233 371.531L220.897 369.239L222.304 367.075L222.432 366.183L222.304 366.056L219.489 364.655L216.29 363.255L212.963 362.109L209.509 361.217L206.438 360.708L203.239 360.453H201.703L199.912 360.581L197.225 360.963L194.538 361.599L192.234 362.363L189.291 363.764L187.116 365.037H186.988L188.524 362.363L189.291 360.963L190.059 359.817L193.13 358.671L195.561 358.034L198.504 357.525L201.703 357.27H203.239L205.542 357.398L207.717 357.652L210.532 358.161L213.475 358.925L217.698 360.326L218.594 360.453L219.489 360.071L222.432 358.416L224.735 356.761L226.527 355.36V355.106H226.783L229.086 352.814L229.982 351.795L231.133 350.522L232.541 348.739L234.076 346.575L235.356 344.665L235.484 344.028L235.228 343.773L231.005 341.736L227.039 340.208L223.968 339.317L221.025 338.68L217.954 338.298H213.091L211.812 338.425L208.869 338.935L206.31 339.699L203.751 340.717L201.575 341.863L199.912 342.882V342.755L201.703 339.699L202.599 338.043L202.855 337.534L203.623 337.28L206.566 336.261L209.765 335.497L212.963 335.115H217.954L220.385 335.37L223.84 336.006L226.783 336.77L231.517 338.425L232.669 338.807L233.309 338.298L235.1 337.152L237.275 335.497L238.555 334.351L239.578 333.46L241.242 331.677L242.138 330.658L243.545 329.003L245.337 326.584L246.488 324.801L247 324.292V323.273L244.825 322.255L242.777 321.236L239.195 319.835L235.868 318.817L232.157 318.053L228.19 317.671H226.015L223.2 317.925L220.001 318.562L217.57 319.326L215.523 320.217L213.475 321.236L211.812 322.255L212.324 321.363L213.091 319.963L214.371 317.798L214.755 317.416L215.011 316.907L216.546 316.27L219.105 315.506L221.281 314.997L223.2 314.742L224.224 313.596L225.887 311.686L227.295 309.649L228.83 306.975L229.854 304.556L230.749 301.755L231.389 298.699L231.773 295.261V290.422L231.389 286.73L230.749 283.037L230.238 281ZM191.467 337.916H191.723L191.595 338.425L191.467 337.916Z" fill="white"/>
</svg>
